<?xml version="1.0" encoding="utf-8"?>
<!-- Generator: Adobe Illustrator 25.0.0, SVG Export Plug-In . SVG Version: 6.00 Build 0)  -->
<svg version="1.1" id="레이어_1" xmlns="http://www.w3.org/2000/svg" xmlns:xlink="http://www.w3.org/1999/xlink" x="0px"
	 y="0px" viewBox="0 0 1000 1000" style="enable-background:new 0 0 1000 1000;" xml:space="preserve">
<style type="text/css">
	.st0{fill:#FF7C83;}
	.st1{font-family:'AppleSDGothicNeo-ExtraBold-KSCpc-EUC-H';}
	.st2{font-size:44.3503px;}
	.st3{font-size:25.449px;}
	.st4{fill:none;stroke:#FF7C83;stroke-width:4.2415;stroke-miterlimit:10;}
	.st5{font-family:'Montserrat-Bold';}
	.st6{font-size:29.6906px;}
</style>
<g>
	<text transform="matrix(1 0 0 1 176.9712 160.1211)" class="st0 st1 st2">몹</text>
	<text transform="matrix(1 0 0 1 378.229 160.1211)" class="st0 st1 st2">싸</text>
	<text transform="matrix(1 0 0 1 579.4883 160.1211)" class="st0 st1 st2">온</text>
	<text transform="matrix(1 0 0 1 780.7441 160.1211)" class="st0 st1 st2">리</text>
	<g>
		<text transform="matrix(1 0 0 1 336.9385 937.6621)" class="st0 st1 st3">본부석 (행사 진행 안내 및 경품수령)</text>
	</g>
	<g>
		<rect x="172.06" y="184.5" class="st4" width="48.19" height="112.99"/>
		<text transform="matrix(1 0 0 1 190.333 254.1152)" class="st0 st5 st6">1</text>
		<rect x="172.06" y="297.49" class="st4" width="48.19" height="112.99"/>
		<text transform="matrix(1 0 0 1 187.3936 367.1055)" class="st0 st5 st6">2</text>
		<rect x="172.06" y="410.48" class="st4" width="48.19" height="112.99"/>
		<text transform="matrix(1 0 0 1 187.3643 480.0996)" class="st0 st5 st6">3</text>
		<rect x="172.06" y="523.47" class="st4" width="48.19" height="112.99"/>
		<text transform="matrix(1 0 0 1 185.9238 593.0898)" class="st0 st5 st6">4</text>
		<rect x="172.06" y="636.47" class="st4" width="48.19" height="112.99"/>
		<text transform="matrix(1 0 0 1 187.3198 706.084)" class="st0 st5 st6">5</text>
		<rect x="172.06" y="749.46" class="st4" width="48.19" height="112.99"/>
		<text transform="matrix(1 0 0 1 186.6958 819.0781)" class="st0 st5 st6">6</text>
	</g>
	<g>
		<rect x="373.31" y="184.5" class="st4" width="48.19" height="112.99"/>
		<text transform="matrix(1 0 0 1 391.5928 254.1152)" class="st0 st5 st6">1</text>
		<rect x="373.31" y="297.49" class="st4" width="48.19" height="112.99"/>
		<text transform="matrix(1 0 0 1 388.6533 367.1055)" class="st0 st5 st6">2</text>
		<rect x="373.31" y="410.48" class="st4" width="48.19" height="112.99"/>
		<text transform="matrix(1 0 0 1 388.624 480.0996)" class="st0 st5 st6">3</text>
		<rect x="373.31" y="523.47" class="st4" width="48.19" height="112.99"/>
		<text transform="matrix(1 0 0 1 387.1836 593.0898)" class="st0 st5 st6">4</text>
		<rect x="373.31" y="636.47" class="st4" width="48.19" height="112.99"/>
		<text transform="matrix(1 0 0 1 388.5796 706.084)" class="st0 st5 st6">5</text>
		<rect x="373.31" y="749.46" class="st4" width="48.19" height="112.99"/>
		<text transform="matrix(1 0 0 1 387.9556 819.0781)" class="st0 st5 st6">6</text>
	</g>
	<g>
		<rect x="574.57" y="184.5" class="st4" width="48.19" height="112.99"/>
		<text transform="matrix(1 0 0 1 592.8506 254.1152)" class="st0 st5 st6">1</text>
		<rect x="574.57" y="297.49" class="st4" width="48.19" height="112.99"/>
		<text transform="matrix(1 0 0 1 589.9111 367.1055)" class="st0 st5 st6">2</text>
		<rect x="574.57" y="410.48" class="st4" width="48.19" height="112.99"/>
		<text transform="matrix(1 0 0 1 589.8818 480.0996)" class="st0 st5 st6">3</text>
		<rect x="574.57" y="523.47" class="st4" width="48.19" height="112.99"/>
		<text transform="matrix(1 0 0 1 588.4414 593.0898)" class="st0 st5 st6">4</text>
		<rect x="574.57" y="636.47" class="st4" width="48.19" height="112.99"/>
		<text transform="matrix(1 0 0 1 589.8369 706.084)" class="st0 st5 st6">5</text>
		<rect x="574.57" y="749.46" class="st4" width="48.19" height="112.99"/>
		<text transform="matrix(1 0 0 1 589.2139 819.0781)" class="st0 st5 st6">6</text>
	</g>
	<g>
		<rect x="775.83" y="184.5" class="st4" width="48.19" height="112.99"/>
		<text transform="matrix(1 0 0 1 794.1104 254.1152)" class="st0 st5 st6">1</text>
		<rect x="775.83" y="297.49" class="st4" width="48.19" height="112.99"/>
		<text transform="matrix(1 0 0 1 791.1709 367.1055)" class="st0 st5 st6">2</text>
		<rect x="775.83" y="410.48" class="st4" width="48.19" height="112.99"/>
		<text transform="matrix(1 0 0 1 791.1416 480.0996)" class="st0 st5 st6">3</text>
		<rect x="775.83" y="523.47" class="st4" width="48.19" height="112.99"/>
		<text transform="matrix(1 0 0 1 789.7012 593.0898)" class="st0 st5 st6">4</text>
		<rect x="775.83" y="636.47" class="st4" width="48.19" height="112.99"/>
		<text transform="matrix(1 0 0 1 791.0967 706.084)" class="st0 st5 st6">5</text>
		<rect x="775.83" y="749.46" class="st4" width="48.19" height="112.99"/>
		<text transform="matrix(1 0 0 1 790.4736 819.0781)" class="st0 st5 st6">6</text>
	</g>
	<polygon class="st4" points="572.02,904.3 446.3,904.3 320.58,904.3 320.58,956.73 446.3,956.73 572.02,956.73 697.74,956.73 
		697.74,904.3 	"/>
	<g>
		<text transform="matrix(1 0 0 1 491.7075 76.3594)" class="st0 st1 st3">입구</text>
	</g>
	<polygon class="st4" points="572.02,43 446.3,43 320.58,43 320.58,91.19 446.3,91.19 572.02,91.19 697.74,91.19 697.74,43 	"/>
</g>
</svg>
