<?xml version="1.0" encoding="UTF-8"?>
<svg width="64px" height="64px" viewBox="0 0 64 64" version="1.1" xmlns="http://www.w3.org/2000/svg" xmlns:xlink="http://www.w3.org/1999/xlink">
    <!-- Generator: Sketch 55.2 (78181) - https://sketchapp.com -->
    <title>icon4</title>
    <desc>Created with Sketch.</desc>
    <g id="Page-1" stroke="none" stroke-width="1" fill="none" fill-rule="evenodd">
        <g id="main" transform="translate(-809.000000, -923.000000)" fill="#FFFFFF">
            <g id="Group-3" transform="translate(360.000000, 610.000000)">
                <g id="process" transform="translate(0.000000, 313.000000)">
                    <g id="Group">
                        <g id="icon4" transform="translate(449.000000, 0.000000)">
                            <path d="M35.5820891,43 C35.768662,43.6145438 35.972091,44.2812105 36.192376,45 L-2.84217094e-14,45 L-2.84217094e-14,17 L64,17 L64,45 L56.6953492,45 L51.3046835,43 L62,43 L62,19 L18.9381067,19 L2,37.0590488 L2,43 L35.5820891,43 Z M10.7879051,19 L2,19 L2,28.3679827 L10.7879051,19 Z M20.4075,27.047 L20.4075,28.2625 L18.015,28.2625 L18.015,35 L16.5355,35 L16.5355,28.2625 L14.132,28.2625 L14.132,27.047 L20.4075,27.047 Z M23.0145,35 L21.5295,35 L21.5295,27.047 L23.0145,27.047 L23.0145,35 Z M30.269,33.1245 C30.3496671,33.1245 30.419333,33.1556664 30.478,33.218 L31.061,33.8505 C30.7383317,34.2501687 30.341419,34.5563323 29.87025,34.769 C29.399081,34.9816677 28.8335033,35.088 28.1735,35.088 C27.5831637,35.088 27.052419,34.9871677 26.58125,34.7855 C26.110081,34.5838323 25.7076683,34.3033351 25.374,33.944 C25.0403317,33.5846649 24.7845842,33.1556692 24.60675,32.657 C24.4289158,32.1583308 24.34,31.6138363 24.34,31.0235 C24.34,30.4258303 24.438999,29.8785858 24.637,29.38175 C24.835001,28.8849142 25.1136649,28.4568351 25.473,28.0975 C25.8323351,27.7381649 26.2622475,27.4585843 26.76275,27.25875 C27.2632525,27.0589157 27.815997,26.959 28.421,26.959 C29.0113363,26.959 29.5274145,27.0534157 29.96925,27.24225 C30.4110855,27.4310843 30.7896651,27.6813318 31.105,27.993 L30.61,28.6805 C30.5806665,28.7245002 30.5430836,28.7629998 30.49725,28.796 C30.4514164,28.8290002 30.3881671,28.8455 30.3075,28.8455 C30.2231662,28.8455 30.1370004,28.8125003 30.049,28.7465 C29.9609996,28.6804997 29.8491673,28.6090004 29.7135,28.532 C29.5778327,28.4549996 29.4064177,28.3835003 29.19925,28.3175 C28.9920823,28.2514997 28.7290016,28.2185 28.41,28.2185 C28.0359981,28.2185 27.6922516,28.2835827 27.37875,28.41375 C27.0652484,28.5439173 26.7957511,28.7299988 26.57025,28.972 C26.3447489,29.2140012 26.1687506,29.5082483 26.04225,29.85475 C25.9157494,30.2012517 25.8525,30.5908312 25.8525,31.0235 C25.8525,31.4708356 25.9157494,31.8686649 26.04225,32.217 C26.1687506,32.5653351 26.3401656,32.8586655 26.5565,33.097 C26.7728344,33.3353345 27.0276652,33.5177494 27.321,33.64425 C27.6143348,33.7707506 27.929665,33.834 28.267,33.834 C28.4686677,33.834 28.6510825,33.8230001 28.81425,33.801 C28.9774175,33.7789999 29.1277493,33.7441669 29.26525,33.6965 C29.4027507,33.6488331 29.5329161,33.587417 29.65575,33.51225 C29.7785839,33.437083 29.9004994,33.3445006 30.0215,33.2345 C30.0581668,33.2014998 30.0966665,33.1749168 30.137,33.15475 C30.1773335,33.1345832 30.2213331,33.1245 30.269,33.1245 Z M33.7065,30.38 L34.053,30.38 C34.192334,30.38 34.3078329,30.3607502 34.3995,30.32225 C34.4911671,30.2837498 34.5699997,30.2223338 34.636,30.138 L36.8305,27.3605 C36.9221671,27.2431661 37.0184162,27.1615836 37.11925,27.11575 C37.2200838,27.0699164 37.3474992,27.047 37.5015,27.047 L38.7775,27.047 L36.099,30.3525 C36.0146662,30.4551672 35.9340004,30.541333 35.857,30.611 C35.7799996,30.680667 35.6975004,30.7374998 35.6095,30.7815 C35.7305006,30.8255002 35.8395828,30.8878329 35.93675,30.9685 C36.0339172,31.0491671 36.1283329,31.1518327 36.22,31.2765 L38.981,35 L37.672,35 C37.4959991,35 37.3649171,34.9752502 37.27875,34.92575 C37.1925829,34.8762498 37.120167,34.8038338 37.0615,34.7085 L34.812,31.7715 C34.7386663,31.6761662 34.6561671,31.6074169 34.5645,31.56525 C34.4728329,31.5230831 34.3426675,31.502 34.174,31.502 L33.7065,31.502 L33.7065,35 L32.227,35 L32.227,27.0415 L33.7065,27.0415 L33.7065,30.38 Z M44.8715,27.047 L44.8715,28.224 L41.346,28.224 L41.346,30.4295 L44.1235,30.4295 L44.1235,31.568 L41.346,31.568 L41.346,33.8175 L44.8715,33.8175 L44.8715,35 L39.8555,35 L39.8555,27.047 L44.8715,27.047 Z M51.7575,27.047 L51.7575,28.2625 L49.365,28.2625 L49.365,35 L47.8855,35 L47.8855,28.2625 L45.482,28.2625 L45.482,27.047 L51.7575,27.047 Z" id="Combined-Shape"></path>
                            <path d="M46.6337891,51.5 L46.6337891,59 L43.6337891,59 L43.6337891,51.5 L38,51.5 L45,38 L52,51.5 L46.6337891,51.5 Z" id="Combined-Shape" transform="translate(45.000000, 48.500000) rotate(-45.000000) translate(-45.000000, -48.500000) "></path>
                        </g>
                    </g>
                </g>
            </g>
        </g>
    </g>
</svg>