<?xml version="1.0" encoding="UTF-8"?>
<svg width="64px" height="64px" viewBox="0 0 64 64" version="1.1" xmlns="http://www.w3.org/2000/svg" xmlns:xlink="http://www.w3.org/1999/xlink">
    <!-- Generator: Sketch 55.2 (78181) - https://sketchapp.com -->
    <title>icon5</title>
    <desc>Created with Sketch.</desc>
    <g id="Page-1" stroke="none" stroke-width="1" fill="none" fill-rule="evenodd">
        <g id="main" transform="translate(-957.000000, -923.000000)" fill="#FFFFFF" fill-rule="nonzero">
            <g id="Group-3" transform="translate(360.000000, 610.000000)">
                <g id="process" transform="translate(0.000000, 313.000000)">
                    <g id="Group">
                        <g id="icon5" transform="translate(597.000000, 0.000000)">
                            <path d="M7.01464771,51.6257134 C7.02075407,51.6379875 7.02663799,51.6504391 7.03229232,51.6630654 L8.83494856,55.6884388 L15.0797724,52.563761 L11.1111369,43.5109231 L7.01464771,51.6257134 Z M5.85388691,53.92508 L3.65539975,58.2800926 L7.04470705,56.5842092 L5.85388691,53.92508 Z M9.1224125,57.7809952 C9.031597,57.8824701 8.91846795,57.9669353 8.78615339,58.0261888 C8.68150858,58.0730512 8.57309027,58.1004598 8.46495577,58.1099621 L1.84884036,61.4204204 C0.987534349,61.8513859 0.0746409199,60.9352401 0.508666895,60.0754722 L17.08063,27.2478488 L14.8973476,25.0645664 C14.3115612,24.47878 14.3115612,23.5290325 14.8973476,22.9432461 C15.4831341,22.3574596 16.4328815,22.3574596 17.018668,22.9432461 L39.2576817,45.1822598 C39.8434681,45.7680462 39.8434681,46.7177937 39.2576817,47.3035801 C38.6718952,47.8893665 37.7221478,47.8893665 37.1363613,47.3035801 L34.777116,44.9443348 L24.8106296,49.9311943 C24.7907414,49.9420006 24.7703544,49.9522103 24.7494808,49.9617909 L9.1224125,57.7809952 Z M12.2799107,41.1956836 L16.870676,51.6676594 L23.0227967,48.5893668 L16.1617894,33.506018 L12.2799107,41.1956836 Z M17.3175573,31.216542 L24.812619,47.6938063 L33.2865482,43.453767 L18.5694441,28.7366628 L17.3175573,31.216542 Z M26.1447596,23.4167069 C25.8578532,23.8886213 25.2427074,24.0385997 24.7707931,23.7516932 C24.2988787,23.4647867 24.1489003,22.849641 24.4358068,22.3777266 C26.4633768,19.0427052 27.0331556,14.1240287 26.0878876,7.61241056 C26.0085461,7.06585465 26.3872982,6.55846451 26.9338541,6.47912298 C27.48041,6.39978144 27.9878001,6.77853353 28.0671417,7.32508944 C29.0732084,14.2555286 28.4514995,19.6224966 26.1447596,23.4167069 Z M28.199277,30.7446737 C27.7880051,31.1132844 27.1557853,31.0787006 26.7871746,30.6674287 C26.4185639,30.2561567 26.4531477,29.6239369 26.8644197,29.2553263 C34.4036184,22.4981692 39.6932984,15.118204 42.7470609,7.11235566 C42.943892,6.59633634 43.5217715,6.33758321 44.0377908,6.53441437 C44.5538101,6.73124552 44.8125633,7.30912502 44.6157321,7.82514434 C41.4432575,16.1422126 35.9665721,23.7830808 28.199277,30.7446737 Z M36.3078488,31.8508782 C35.9141036,32.2381548 35.2809603,32.232911 34.8936837,31.8391658 C34.5064071,31.4454206 34.5116509,30.8122773 34.9053961,30.4250007 C41.5959915,23.8443206 48.7039645,19.4796921 56.2257824,17.347242 C56.7571268,17.1966048 57.3099821,17.505229 57.4606193,18.0365734 C57.6112565,18.5679178 57.3026323,19.1207732 56.7712879,19.2714103 C49.5896553,21.3074173 42.7696865,25.4951977 36.3078488,31.8508782 Z M37.6704797,39.6972377 C37.2914735,40.09895 36.6585761,40.1173569 36.2568639,39.7383508 C35.8551516,39.3593446 35.8367446,38.7264472 36.2157508,38.3247349 C39.8189723,34.5056458 45.6439312,33.1366072 53.6078024,34.1311203 C54.1558305,34.199557 54.5446162,34.6993006 54.4761795,35.2473287 C54.4077428,35.7953569 53.9079992,36.1841426 53.3599711,36.1157058 C45.9690245,35.1927385 40.7668025,36.4154154 37.6704797,39.6972377 Z M20,18 C21.1045695,18 22,17.1045695 22,16 C22,14.8954305 21.1045695,14 20,14 C18.8954305,14 18,14.8954305 18,16 C18,17.1045695 18.8954305,18 20,18 Z M35.3970362,8.46847993 C36.5016057,8.46847993 37.3970362,7.57304943 37.3970362,6.46847993 C37.3970362,5.36391043 36.5016057,4.46847993 35.3970362,4.46847993 C34.2924667,4.46847993 33.3970362,5.36391043 33.3970362,6.46847993 C33.3970362,7.57304943 34.2924667,8.46847993 35.3970362,8.46847993 Z M16.3970362,12.4684799 C16.949321,12.4684799 17.3970362,12.0207647 17.3970362,11.4684799 C17.3970362,10.9161952 16.949321,10.4684799 16.3970362,10.4684799 C15.8447515,10.4684799 15.3970362,10.9161952 15.3970362,11.4684799 C15.3970362,12.0207647 15.8447515,12.4684799 16.3970362,12.4684799 Z M53.3970362,10.4684799 C54.5016057,10.4684799 55.3970362,9.57304943 55.3970362,8.46847993 C55.3970362,7.36391043 54.5016057,6.46847993 53.3970362,6.46847993 C52.2924667,6.46847993 51.3970362,7.36391043 51.3970362,8.46847993 C51.3970362,9.57304943 52.2924667,10.4684799 53.3970362,10.4684799 Z M52.3970362,28.4684799 C52.949321,28.4684799 53.3970362,28.0207647 53.3970362,27.4684799 C53.3970362,26.9161952 52.949321,26.4684799 52.3970362,26.4684799 C51.8447515,26.4684799 51.3970362,26.9161952 51.3970362,27.4684799 C51.3970362,28.0207647 51.8447515,28.4684799 52.3970362,28.4684799 Z M58.3970362,28.4684799 C59.5016057,28.4684799 60.3970362,27.5730494 60.3970362,26.4684799 C60.3970362,25.3639104 59.5016057,24.4684799 58.3970362,24.4684799 C57.2924667,24.4684799 56.3970362,25.3639104 56.3970362,26.4684799 C56.3970362,27.5730494 57.2924667,28.4684799 58.3970362,28.4684799 Z M47.8970362,43.4684799 C48.7254634,43.4684799 49.3970362,42.7969071 49.3970362,41.9684799 C49.3970362,41.1400528 48.7254634,40.4684799 47.8970362,40.4684799 C47.0686091,40.4684799 46.3970362,41.1400528 46.3970362,41.9684799 C46.3970362,42.7969071 47.0686091,43.4684799 47.8970362,43.4684799 Z" id="Combined-Shape"></path>
                        </g>
                    </g>
                </g>
            </g>
        </g>
    </g>
</svg>