<?xml version="1.0" encoding="UTF-8"?>
<svg width="64px" height="64px" viewBox="0 0 64 64" version="1.1" xmlns="http://www.w3.org/2000/svg" xmlns:xlink="http://www.w3.org/1999/xlink">
    <!-- Generator: Sketch 55.2 (78181) - https://sketchapp.com -->
    <title>icon1</title>
    <desc>Created with Sketch.</desc>
    <g id="Page-1" stroke="none" stroke-width="1" fill="none" fill-rule="evenodd">
        <g id="main" transform="translate(-360.000000, -923.000000)" fill="#FFFFFF">
            <g id="Group-3" transform="translate(360.000000, 610.000000)">
                <g id="process" transform="translate(0.000000, 313.000000)">
                    <g id="Group">
                        <g id="icon1">
                            <path d="M62,19 L62,13 L2,13 L2,51 L62,51 L62,21 L2,21 L2,19 L62,19 Z M0,11 L64,11 L64,53 L0,53 L0,11 Z M5,17 C4.44771525,17 4,16.5522847 4,16 C4,15.4477153 4.44771525,15 5,15 C5.55228475,15 6,15.4477153 6,16 C6,16.5522847 5.55228475,17 5,17 Z M13,17 C12.4477153,17 12,16.5522847 12,16 C12,15.4477153 12.4477153,15 13,15 C13.5522847,15 14,15.4477153 14,16 C14,16.5522847 13.5522847,17 13,17 Z M9,17 C8.44771525,17 8,16.5522847 8,16 C8,15.4477153 8.44771525,15 9,15 C9.55228475,15 10,15.4477153 10,16 C10,16.5522847 9.55228475,17 9,17 Z M40,34 L40,40 C40,44.418278 36.418278,48 32,48 C27.581722,48 24,44.418278 24,40 L24,34 L22,34 L22,32 C22,27.581722 25.581722,24 30,24 L34,24 C38.418278,24 42,27.581722 42,32 L42,34 L40,34 Z M38,34 L26,34 L26,40 C26,43.3137085 28.6862915,46 32,46 C35.3137085,46 38,43.3137085 38,40 L38,34 Z M32,37 C32.5522847,37 33,37.4477153 33,38 L33,40 C33,40.5522847 32.5522847,41 32,41 C31.4477153,41 31,40.5522847 31,40 L31,38 C31,37.4477153 31.4477153,37 32,37 Z" id="Combined-Shape"></path>
                        </g>
                    </g>
                </g>
            </g>
        </g>
    </g>
</svg>